solid OpenSCAD_Model
  facet normal 1 -0 0
    outer loop
      vertex 100 0 13
      vertex 100 73 0
      vertex 100 73 13
    endloop
  endfacet
  facet normal 1 0 0
    outer loop
      vertex 100 73 0
      vertex 100 0 13
      vertex 100 0 0
    endloop
  endfacet
  facet normal 0 0 -1
    outer loop
      vertex 0 0 0
      vertex 100 73 0
      vertex 100 0 0
    endloop
  endfacet
  facet normal -0 0 -1
    outer loop
      vertex 100 73 0
      vertex 0 0 0
      vertex 0 73 0
    endloop
  endfacet
  facet normal -1 0 0
    outer loop
      vertex 0 0 0
      vertex 0 73 13
      vertex 0 73 0
    endloop
  endfacet
  facet normal -1 -0 0
    outer loop
      vertex 0 73 13
      vertex 0 0 0
      vertex 0 0 13
    endloop
  endfacet
  facet normal 0 1 0
    outer loop
      vertex 100 73 13
      vertex 57.5 73 10
      vertex 57.5 73 13
    endloop
  endfacet
  facet normal 0 1 0
    outer loop
      vertex 57.5 73 10
      vertex 100 73 0
      vertex 42.5 73 10
    endloop
  endfacet
  facet normal 0 1 -0
    outer loop
      vertex 100 73 0
      vertex 57.5 73 10
      vertex 100 73 13
    endloop
  endfacet
  facet normal 0 1 -0
    outer loop
      vertex 42.5 73 10
      vertex 0 73 13
      vertex 42.5 73 13
    endloop
  endfacet
  facet normal 0 1 0
    outer loop
      vertex 0 73 0
      vertex 42.5 73 10
      vertex 100 73 0
    endloop
  endfacet
  facet normal 0 1 0
    outer loop
      vertex 42.5 73 10
      vertex 0 73 0
      vertex 0 73 13
    endloop
  endfacet
  facet normal 0 -1 0
    outer loop
      vertex 0 0 0
      vertex 100 0 13
      vertex 0 0 13
    endloop
  endfacet
  facet normal 0 -1 -0
    outer loop
      vertex 100 0 13
      vertex 0 0 0
      vertex 100 0 0
    endloop
  endfacet
  facet normal -0 0 1
    outer loop
      vertex 23 70 5
      vertex 77 60 5
      vertex 77 70 5
    endloop
  endfacet
  facet normal 0 0 1
    outer loop
      vertex 77 60 5
      vertex 23 70 5
      vertex 23 60 5
    endloop
  endfacet
  facet normal 0 -1 0
    outer loop
      vertex 23 70 13
      vertex 42.5 70 10
      vertex 42.5 70 13
    endloop
  endfacet
  facet normal 0 -1 -0
    outer loop
      vertex 42.5 70 10
      vertex 23 70 5
      vertex 57.5 70 10
    endloop
  endfacet
  facet normal 0 -1 0
    outer loop
      vertex 23 70 5
      vertex 42.5 70 10
      vertex 23 70 13
    endloop
  endfacet
  facet normal 0 -1 0
    outer loop
      vertex 57.5 70 10
      vertex 77 70 13
      vertex 57.5 70 13
    endloop
  endfacet
  facet normal 0 -1 0
    outer loop
      vertex 57.5 70 10
      vertex 77 70 5
      vertex 77 70 13
    endloop
  endfacet
  facet normal 0 -1 0
    outer loop
      vertex 77 70 5
      vertex 57.5 70 10
      vertex 23 70 5
    endloop
  endfacet
  facet normal 0 0 1
    outer loop
      vertex 42.5 73 13
      vertex 23 70 13
      vertex 42.5 70 13
    endloop
  endfacet
  facet normal 0 0 1
    outer loop
      vertex 23 70 13
      vertex 0 73 13
      vertex 23 60 13
    endloop
  endfacet
  facet normal -0 0 1
    outer loop
      vertex 0 73 13
      vertex 23 70 13
      vertex 42.5 73 13
    endloop
  endfacet
  facet normal 0 0 1
    outer loop
      vertex 77 60 13
      vertex 100 73 13
      vertex 77 70 13
    endloop
  endfacet
  facet normal -0 0 1
    outer loop
      vertex 57.5 73 13
      vertex 77 70 13
      vertex 100 73 13
    endloop
  endfacet
  facet normal 0 0 1
    outer loop
      vertex 77 70 13
      vertex 57.5 73 13
      vertex 57.5 70 13
    endloop
  endfacet
  facet normal 0 0 1
    outer loop
      vertex 100 73 13
      vertex 77 60 13
      vertex 100 0 13
    endloop
  endfacet
  facet normal -0 0 1
    outer loop
      vertex 23 60 13
      vertex 100 0 13
      vertex 77 60 13
    endloop
  endfacet
  facet normal 0 0 1
    outer loop
      vertex 0 0 13
      vertex 23 60 13
      vertex 0 73 13
    endloop
  endfacet
  facet normal 0 0 1
    outer loop
      vertex 23 60 13
      vertex 0 0 13
      vertex 100 0 13
    endloop
  endfacet
  facet normal -1 0 0
    outer loop
      vertex 77 60 5
      vertex 77 70 13
      vertex 77 70 5
    endloop
  endfacet
  facet normal -1 -0 0
    outer loop
      vertex 77 70 13
      vertex 77 60 5
      vertex 77 60 13
    endloop
  endfacet
  facet normal 1 -0 0
    outer loop
      vertex 23 60 13
      vertex 23 70 5
      vertex 23 70 13
    endloop
  endfacet
  facet normal 1 0 0
    outer loop
      vertex 23 70 5
      vertex 23 60 13
      vertex 23 60 5
    endloop
  endfacet
  facet normal 0 1 -0
    outer loop
      vertex 77 60 5
      vertex 23 60 13
      vertex 77 60 13
    endloop
  endfacet
  facet normal 0 1 0
    outer loop
      vertex 23 60 13
      vertex 77 60 5
      vertex 23 60 5
    endloop
  endfacet
  facet normal -1 0 0
    outer loop
      vertex 57.5 70 10
      vertex 57.5 73 13
      vertex 57.5 73 10
    endloop
  endfacet
  facet normal -1 -0 0
    outer loop
      vertex 57.5 73 13
      vertex 57.5 70 10
      vertex 57.5 70 13
    endloop
  endfacet
  facet normal -0 0 1
    outer loop
      vertex 42.5 73 10
      vertex 57.5 70 10
      vertex 57.5 73 10
    endloop
  endfacet
  facet normal 0 0 1
    outer loop
      vertex 57.5 70 10
      vertex 42.5 73 10
      vertex 42.5 70 10
    endloop
  endfacet
  facet normal 1 -0 0
    outer loop
      vertex 42.5 70 13
      vertex 42.5 73 10
      vertex 42.5 73 13
    endloop
  endfacet
  facet normal 1 0 0
    outer loop
      vertex 42.5 73 10
      vertex 42.5 70 13
      vertex 42.5 70 10
    endloop
  endfacet
endsolid OpenSCAD_Model
